# xmcd
#
# Track frame offsets:
#  225
#  15024
#  26478
#  42037
#  54445
#  68917
#  84598
#
# Disc length: 1387 seconds
#
# Revision: 0
# Processed by: cddbd v1.4PL0 Copyright (c) Steve Scherf et al.
# Submitted via: AltoMP3_Maker 3.0
#
DISCID=46056807
DTITLE=Swingin Kings - Swingin Kings
DYEAR=1900
DGENRE=
TTITLE0=Tired of Tryin'
TTITLE1=Watch Yourself
TTITLE2=Who's Been Talking
TTITLE3=Trying to Make A Living
TTITLE4=Next Time You See Me
TTITLE5=Oh, Pretty Woman
TTITLE6=Woke Up This Morning
EXTD=
EXTT0=
EXTT1=
EXTT2=
EXTT3=
EXTT4=
EXTT5=
EXTT6=
PLAYORDER=
